HIERARCHY
ROOT Hips
{
	OFFSET 0.000000 0.000000 0.000000
	CHANNELS 6 Xposition Yposition Zposition Zrotation Yrotation Xrotation 
	JOINT LHipJoint
	{
		OFFSET 0.000000 0.000000 0.000000
		CHANNELS 3 Zrotation Yrotation Xrotation
		JOINT LeftUpLeg
		{
			OFFSET 8.178360 -10.767780 5.035740
			CHANNELS 3 Zrotation Yrotation Xrotation
			JOINT LeftLeg
			{
				OFFSET 14.688660 -40.356780 0.000000
				CHANNELS 3 Zrotation Yrotation Xrotation
				JOINT LeftFoot
				{
					OFFSET 15.373200 -42.237540 0.000000
					CHANNELS 3 Zrotation Yrotation Xrotation
					JOINT LeftToeBase
					{
						OFFSET 0.945840 -2.598660 13.935300
						CHANNELS 3 Zrotation Yrotation Xrotation
						End Site
						{
							OFFSET 0.000000 0.000000 0.000000
						}
					}
				}
			}
		}
	}
	JOINT RHipJoint
	{
		OFFSET 0.000000 0.000000 0.000000
		CHANNELS 3 Zrotation Yrotation Xrotation
		JOINT RightUpLeg
		{
			OFFSET -7.833120 -10.767780 5.035740
			CHANNELS 3 Zrotation Yrotation Xrotation
			JOINT RightLeg
			{
				OFFSET -15.255180 -41.913300 0.000000
				CHANNELS 3 Zrotation Yrotation Xrotation
				JOINT RightFoot
				{
					OFFSET -15.409560 -42.337380 0.000000
					CHANNELS 3 Zrotation Yrotation Xrotation
					JOINT RightToeBase
					{
						OFFSET -0.988380 -2.715540 14.178900
						CHANNELS 3 Zrotation Yrotation Xrotation
						End Site
						{
							OFFSET 0.000000 0.000000 0.000000
						}
					}
				}
			}
		}
	}
	JOINT LowerBack
	{
		OFFSET 0.000000 0.000000 0.000000
		CHANNELS 3 Zrotation Yrotation Xrotation
		JOINT Spine
		{
			OFFSET 0.169620 12.213540 -1.160280
			CHANNELS 3 Zrotation Yrotation Xrotation
			JOINT Spine1
			{
				OFFSET 0.340320 12.293100 -0.256500
				CHANNELS 3 Zrotation Yrotation Xrotation
				JOINT Neck
				{
					OFFSET 0.000000 0.000000 0.000000
					CHANNELS 3 Zrotation Yrotation Xrotation
					JOINT Neck1
					{
						OFFSET -0.325020 10.477440 1.032120
						CHANNELS 3 Zrotation Yrotation Xrotation
						JOINT Head
						{
							OFFSET 0.624420 10.568160 -0.743820
							CHANNELS 3 Zrotation Yrotation Xrotation
							End Site
							{
								OFFSET 0.000000 0.000000 0.000000
							}
						}
					}
				}
				JOINT LeftShoulder
				{
					OFFSET 0.000000 0.000000 0.000000
					CHANNELS 3 Zrotation Yrotation Xrotation
					JOINT LeftArm
					{
						OFFSET 20.174460 7.205340 -1.867260
						CHANNELS 3 Zrotation Yrotation Xrotation
						JOINT LeftForeArm
						{
							OFFSET 29.898000 -0.000000 -0.000000
							CHANNELS 3 Zrotation Yrotation Xrotation
							JOINT LeftHand
							{
								OFFSET 20.901360 -0.000000 -0.000000
								CHANNELS 3 Zrotation Yrotation Xrotation
								JOINT LeftFingerBase
								{
									OFFSET 0.000000 0.000000 0.000000
									CHANNELS 3 Zrotation Yrotation Xrotation
									JOINT LeftHandIndex1
									{
										OFFSET 4.291560 -0.000000 -0.000000
										CHANNELS 3 Zrotation Yrotation Xrotation
										End Site
										{
											OFFSET 0.000000 0.000000 0.000000
										}
									}
								}
								JOINT LThumb
								{
									OFFSET 0.000000 0.000000 0.000000
									CHANNELS 3 Zrotation Yrotation Xrotation
									End Site
									{
										OFFSET 0.000000 0.000000 0.000000
									}
								}
							}
						}
					}
				}
				JOINT RightShoulder
				{
					OFFSET 0.000000 0.000000 0.000000
					CHANNELS 3 Zrotation Yrotation Xrotation
					JOINT RightArm
					{
						OFFSET -18.819600 8.244300 -2.427900
						CHANNELS 3 Zrotation Yrotation Xrotation
						JOINT RightForeArm
						{
							OFFSET -31.451400 -0.000000 -0.000000
							CHANNELS 3 Zrotation Yrotation Xrotation
							JOINT RightHand
							{
								OFFSET -20.665020 -0.000000 -0.000000
								CHANNELS 3 Zrotation Yrotation Xrotation
								JOINT RightFingerBase
								{
									OFFSET 0.000000 0.000000 0.000000
									CHANNELS 3 Zrotation Yrotation Xrotation
									JOINT RightHandIndex1
									{
										OFFSET -3.735180 -0.000000 -0.000000
										CHANNELS 3 Zrotation Yrotation Xrotation
										End Site
										{
											OFFSET 0.000000 0.000000 0.000000
										}
									}
								}
								JOINT RThumb
								{
									OFFSET 0.000000 0.000000 0.000000
									CHANNELS 3 Zrotation Yrotation Xrotation
									End Site
									{
										OFFSET 0.000000 0.000000 0.000000
									}
								}
							}
						}
					}
				}
			}
		}
	}
}
MOTION
Frames:	7
Frame Time:	0.0333333
19.210866 102.430308 20.347308 -178.816021 -1.280180 -176.481956 -0.462203 -2.104756 -1.822979 -7.908900 34.060407 -43.284838 11.378119 17.297806 54.632131 5.188191 -4.250986 14.359944 0.373300 -3.924200 -10.863500 1.172078 3.147034 -1.760786 17.672132 -35.876582 -48.319249 -13.298024 -18.211661 61.596662 2.138722 -9.088229 4.393858 -0.227900 -3.072900 8.481800 -0.199368 1.904583 10.290525 0.502476 2.832903 -4.984389 0.713521 1.150546 -3.792558 -2.816152 0.625810 -19.242682 6.859683 -1.378026 16.770895 0.653100 -0.854100 16.547600 -4.173466 -4.800151 1.466049 10.459837 -2.116144 40.290608 9.280044 -12.573620 -7.025421 -1.238112 -2.533828 -15.888037 3.432513 -1.353909 0.069500 -7.125000 0.000000 0.000000 -16.683400 30.470000 6.154600 8.889193 6.111374 1.747577 -12.048041 -3.903954 39.441952 -7.130517 13.227583 -6.728586 3.290533 -2.265864 -14.394999 -7.036583 13.451969 -2.747600 7.125000 0.000000 0.000000 12.071200 -13.619200 9.097800 
19.515114 102.258240 20.388762 -178.839777 -1.466068 -176.557216 -0.436967 -2.077765 -1.830879 -7.971112 34.171501 -43.371481 11.433215 17.297460 54.588476 4.725232 -3.231466 13.625153 0.513600 -4.593400 -12.752300 1.133573 3.111549 -1.758329 17.873796 -36.103137 -48.554764 -13.430185 -18.276800 62.024689 2.094647 -8.987178 4.014324 -0.231400 -3.096100 8.546300 -0.207485 1.855297 10.307535 0.494503 2.763485 -5.029947 0.710115 1.128529 -3.878445 -2.789421 0.722931 -19.182636 6.812420 -1.324763 16.948948 0.620200 -0.857700 16.688900 -4.191452 -4.752654 1.407561 10.565162 -2.237445 39.637247 9.242714 -12.449363 -6.893352 -1.382616 -2.396836 -16.107773 3.568430 -1.544703 0.036700 -7.125000 0.000000 0.000000 -16.434400 30.121000 6.198900 8.878297 6.082304 1.723238 -12.144841 -3.855130 39.181139 -7.118804 13.154471 -6.718589 3.228593 -2.330095 -14.119663 -6.933695 13.471986 -2.709300 7.125000 0.000000 0.000000 12.178200 -13.574500 9.194100 
19.815456 102.148740 20.452896 -178.816101 -1.729571 -176.596060 -0.435851 -2.095384 -1.859706 -8.081854 34.206550 -43.524300 11.417709 17.256320 54.374180 4.217425 -2.140782 13.033161 0.487400 -4.476600 -12.421600 1.126483 3.109597 -1.743800 18.148630 -36.301606 -48.810554 -13.523233 -18.313608 62.343163 2.133009 -9.033302 3.657248 -0.244000 -3.178900 8.777200 -0.221596 1.789758 10.334865 0.495953 2.668263 -5.082581 0.753633 1.089374 -4.026702 -2.770578 0.755556 -19.118704 6.782519 -1.351496 17.075982 0.579500 -0.885300 16.803600 -4.200247 -4.715597 1.361121 10.672374 -2.355739 39.168948 9.235850 -12.354049 -6.799005 -1.500451 -2.234623 -16.122314 3.670004 -1.767227 -0.003500 -7.125000 0.000000 0.000000 -16.238000 29.728800 6.277900 8.877648 6.066193 1.695691 -12.217160 -3.840023 38.787331 -7.072274 13.059872 -6.686297 3.138386 -2.327930 -13.980625 -6.754580 13.356285 -2.612300 7.125000 0.000000 0.000000 12.351600 -13.732900 9.289100 
20.118144 102.121362 20.563962 -178.732011 -2.114255 -176.594829 -0.465541 -2.203924 -1.942495 -7.987775 33.831821 -43.504632 11.362507 17.203878 54.164695 3.836260 -1.358139 12.677480 0.338500 -3.738600 -10.342300 1.161633 3.165797 -1.718981 18.500501 -36.436025 -49.071021 -13.562003 -18.308498 62.517050 2.259130 -9.234651 3.327080 -0.275500 -3.376000 9.327500 -0.210651 1.688225 10.383704 0.515317 2.525246 -5.125326 0.844775 1.022233 -4.160724 -2.760764 0.727987 -19.067005 6.749191 -1.415965 17.101789 0.514400 -0.912400 16.835000 -4.191537 -4.688221 1.338213 10.745882 -2.435641 38.816554 9.247262 -12.311424 -6.770585 -1.596980 -2.120328 -16.258478 3.761474 -1.949764 -0.036900 -7.125000 0.000000 0.000000 -16.068000 29.419900 6.330700 8.879811 6.056768 1.670598 -12.271116 -3.868997 38.387393 -7.011842 12.971050 -6.655168 3.037377 -2.325335 -13.889503 -6.540541 13.246598 -2.504000 7.125000 0.000000 0.000000 12.557000 -13.888100 9.409100 
20.399712 102.144828 20.720388 -178.639943 -2.523191 -176.597945 -0.533883 -2.354698 -2.038845 -7.622611 33.096464 -43.179853 11.287711 17.152279 53.951796 3.439322 -0.577208 12.467913 0.310700 -3.583500 -9.907700 1.230008 3.257892 -1.695726 18.798283 -36.466276 -49.236363 -13.555887 -18.279347 62.562062 2.479560 -9.602080 3.012375 -0.307400 -3.564800 9.855300 -0.209891 1.581348 10.485943 0.540128 2.379207 -5.157431 0.942421 0.949864 -4.261478 -2.672463 0.677536 -19.017190 6.695806 -1.506217 17.048758 0.397000 -0.923800 16.793700 -4.158944 -4.659969 1.327725 10.809681 -2.489386 38.570989 9.283292 -12.305600 -6.804698 -1.585026 -2.051302 -16.659734 3.704779 -2.074030 -0.057000 -7.125000 0.000000 0.000000 -16.095200 29.223400 6.420900 8.887852 6.040180 1.646203 -12.302417 -3.934581 38.115848 -6.945645 12.888575 -6.614653 2.998664 -2.365451 -13.614313 -6.479191 13.212655 -2.475200 7.125000 0.000000 0.000000 12.619300 -13.908300 9.452700 
20.642178 102.236340 20.892462 -178.639524 -2.763571 -176.559951 -0.627248 -2.482365 -2.088045 -7.464331 32.585856 -42.968913 11.183110 17.075323 53.614360 2.910993 0.461500 12.300330 0.344600 -3.771900 -10.435800 1.309094 3.359486 -1.698504 18.972936 -36.378059 -49.327623 -13.506867 -18.241727 62.465788 2.769616 -10.093004 2.745092 -0.329100 -3.687000 10.197700 -0.324892 1.533852 10.600930 0.542059 2.305657 -5.190835 1.023134 0.915047 -4.374681 -2.483428 0.648773 -18.992771 6.649461 -1.607757 16.995240 0.280300 -0.926000 16.772200 -4.121781 -4.631921 1.319712 10.897160 -2.544590 38.453331 9.329591 -12.286751 -6.826894 -1.578653 -1.938500 -16.813677 3.651531 -2.242160 -0.084200 -7.125000 0.000000 0.000000 -16.119100 28.951800 6.539900 8.909479 6.020419 1.611178 -12.281148 -4.014281 37.922625 -6.888690 12.842075 -6.600290 2.881042 -2.394125 -13.404323 -6.256189 13.179432 -2.375400 7.125000 0.000000 0.000000 12.840000 -13.967000 9.610400 
20.825196 102.376338 21.045762 -178.695044 -2.846699 -176.447148 -0.712106 -2.569286 -2.095903 -7.568873 32.432852 -42.978665 11.071820 16.982993 53.220041 2.381922 1.498437 12.175661 0.326400 -3.672200 -10.156200 1.373417 3.444425 -1.725620 19.131673 -36.286319 -49.468821 -13.440836 -18.206664 62.281780 3.119618 -10.690205 2.587944 -0.321400 -3.643900 10.076800 -0.483958 1.519830 10.647608 0.528151 2.267333 -5.227208 1.090342 0.904670 -4.474398 -2.229815 0.683113 -18.971205 6.597768 -1.644148 16.944539 0.176200 -0.900800 16.747700 -4.103817 -4.595621 1.295591 10.971064 -2.593229 38.386918 9.347928 -12.239241 -6.792819 -1.606833 -1.845965 -16.874350 3.652790 -2.363280 -0.106300 -7.125000 0.000000 0.000000 -16.083700 28.739800 6.609000 8.940572 5.987865 1.582025 -12.245323 -4.064442 37.887769 -6.890637 12.852634 -6.631677 2.782141 -2.405633 -13.310757 -6.074038 13.184907 -2.296500 7.125000 0.000000 0.000000 13.022200 -13.991300 9.747500 
